<?xml version="1.0" encoding="UTF-8"?>
<svg id="Laag_1" data-name="Laag 1" xmlns="http://www.w3.org/2000/svg" viewBox="0 0 20 20">
  <defs>
    <style>
      .cls-1 {
        fill: #fff;
        stroke-width: 0px;
      }
    </style>
  </defs>
  <path class="cls-1" d="m20,3.39v13.2c0,.57-.33,1.1-.84,1.35-1.17.57-3.2,1.56-3.52,1.71-.47.21-.76.35-1.13.35s-.61-.24-.78-.42c-.17-.18,1.28-5.08,1.28-5.08V1.12s-1.59-.33-1.29-.67c.3-.34.55-.45.87-.45.36,0,.66.16.99.32.23.11,2.37,1.14,3.59,1.72.52.25.85.77.85,1.35Z"/>
  <path class="cls-1" d="m0,14c0,.96.13,1.11,1.07,1.51.73.32,1.02.49,1.21.49.23,0,.45-.16.66-.33S15,5.76,15,5.76V.78c0-.6-.84-.84-1.23-.39C13.76.39,1.37,14.15,1,14.51s-.12-.95-1-.51Z"/>
  <path class="cls-1" d="m.31,4.84c.16-.08,1.47-.66,1.63-.73.19-.08.26-.11.4-.11.15,0,.26.06.5.26.34.28,12.16,9.98,12.16,9.98v4.88c0,.84-.87.92-1.36.37-.35-.39-12.44-13.77-12.44-13.77,0,0-1.19.6-1.19.08,0-.71.14-.87.31-.95Z"/>
  <path class="cls-1" d="m2.5,7.16v5.71s-1.36,1.5-1.67,1.83c-.27.29-.83.2-.83-.62V5.72c0-.63.57-.69,1.05-.16.09.1,1.45,1.61,1.45,1.61Z"/>
</svg>